<mxfile host="drawio-plugin" modified="2021-03-12T20:49:26.180Z" agent="5.0 (Windows NT 6.2; Win64; x64) AppleWebKit/537.36 (KHTML, like Gecko) Chrome/84.0.4147.105 Safari/537.36" etag="lRppi8x0zuELl-axzPCP" version="13.7.9" type="embed"><diagram id="jhScx3T2LiO-LVDhM_iL" name="Page-1"><mxGraphModel dx="971" dy="547" grid="0" gridSize="10" guides="1" tooltips="1" connect="1" arrows="1" fold="1" page="1" pageScale="1" pageWidth="827" pageHeight="1169" background="#000000" math="0" shadow="0"><root><mxCell id="0"/><mxCell id="1" parent="0"/><mxCell id="3" value="" style="rounded=0;whiteSpace=wrap;html=1;labelBackgroundColor=none;noLabel=1;fontColor=#ffffff;strokeColor=none;fillColor=#3333FF;" vertex="1" parent="1"><mxGeometry x="218" y="613" width="448" height="439" as="geometry"/></mxCell><mxCell id="kSItF3k7zf2F2lelT3IY-7" value="&lt;pre style=&quot;text-align: left ; font-family: &amp;#34;jetbrains mono&amp;#34; , monospace&quot;&gt;&lt;font color=&quot;#ffffff&quot; style=&quot;background-color: rgb(0 , 0 , 0)&quot;&gt;   ____         _          _  _ _        _   _                  _&lt;br&gt;  | __ )   __ _| |_   __ _(_)| | | ___  | \ | | __ ___   ____ _| | ___&lt;br&gt;  |  _ \  / _` | __| / _` | || | |/ _ \ |  \| |/ _` \ \ / / _` | |/ _ \&lt;br&gt;  | |_) || (_| | |_ | (_| | || | |  __/ | |\  | (_| |\ V / (_| | |  __/&lt;br&gt;  |____/  \__,_|\__| \__,_|_||_|_|\___| |_| \_|\__,_| \_/ \__,_|_|\___|&lt;/font&gt;&lt;/pre&gt;" style="text;html=1;align=center;verticalAlign=middle;resizable=0;points=[];autosize=1;" parent="1" vertex="1"><mxGeometry x="154" y="120" width="521" height="96" as="geometry"/></mxCell><mxCell id="kSItF3k7zf2F2lelT3IY-8" value="&lt;pre style=&quot;font-family: &amp;#34;jetbrains mono&amp;#34; , monospace&quot;&gt;&lt;font color=&quot;#ffffff&quot; style=&quot;background-color: rgb(0 , 0 , 0)&quot;&gt;                                 by Joshua                     &lt;br&gt;             MENU PRINCIPAL&lt;br&gt;             Jouer   [1]&lt;br&gt;             Scores  [2]&lt;br&gt;             Règles  [3]&lt;br&gt;             Options [4]&lt;br&gt;             Quitter [5]&lt;/font&gt;&lt;/pre&gt;" style="text;html=1;align=center;verticalAlign=middle;resizable=0;points=[];autosize=1;fillColor=#000000;" parent="1" vertex="1"><mxGeometry x="136" y="203" width="464" height="123" as="geometry"/></mxCell><mxCell id="kSItF3k7zf2F2lelT3IY-11" value="&lt;b&gt;&lt;font color=&quot;#000000&quot;&gt;JEU&lt;/font&gt;&lt;/b&gt;" style="rounded=0;whiteSpace=wrap;html=1;fillColor=#FFFFFF;" parent="1" vertex="1"><mxGeometry y="465" width="824" height="60" as="geometry"/></mxCell><mxCell id="kSItF3k7zf2F2lelT3IY-12" value="&lt;b&gt;&lt;font color=&quot;#000000&quot;&gt;MENU&lt;/font&gt;&lt;/b&gt;" style="rounded=0;whiteSpace=wrap;html=1;fillColor=#FFFFFF;" parent="1" vertex="1"><mxGeometry x="2" width="824" height="60" as="geometry"/></mxCell><mxCell id="kSItF3k7zf2F2lelT3IY-21" value="&lt;span style=&quot;font-size: 18px ; background-color: rgb(0 , 0 , 0)&quot;&gt;&lt;font color=&quot;#ffffff&quot;&gt;A&amp;nbsp; &amp;nbsp; &amp;nbsp; &amp;nbsp;B&amp;nbsp; &amp;nbsp; &amp;nbsp; &amp;nbsp;C&amp;nbsp; &amp;nbsp; &amp;nbsp; D&lt;/font&gt;&lt;/span&gt;" style="rounded=0;whiteSpace=wrap;html=1;strokeColor=#FFFFFF;fillColor=#000000;" parent="1" vertex="1"><mxGeometry x="217" y="568" width="180" height="44" as="geometry"/></mxCell><mxCell id="kSItF3k7zf2F2lelT3IY-22" value="" style="endArrow=none;html=1;entryX=0.5;entryY=0;entryDx=0;entryDy=0;exitX=0.5;exitY=1;exitDx=0;exitDy=0;strokeColor=#FFFFFF;" parent="1" source="kSItF3k7zf2F2lelT3IY-21" target="kSItF3k7zf2F2lelT3IY-21" edge="1"><mxGeometry width="50" height="50" relative="1" as="geometry"><mxPoint x="356" y="758" as="sourcePoint"/><mxPoint x="406" y="708" as="targetPoint"/></mxGeometry></mxCell><mxCell id="kSItF3k7zf2F2lelT3IY-23" value="" style="endArrow=none;html=1;entryX=0.75;entryY=0;entryDx=0;entryDy=0;exitX=0.75;exitY=1;exitDx=0;exitDy=0;strokeColor=#FFFFFF;" parent="1" source="kSItF3k7zf2F2lelT3IY-21" target="kSItF3k7zf2F2lelT3IY-21" edge="1"><mxGeometry width="50" height="50" relative="1" as="geometry"><mxPoint x="573" y="774" as="sourcePoint"/><mxPoint x="573" y="713" as="targetPoint"/></mxGeometry></mxCell><mxCell id="kSItF3k7zf2F2lelT3IY-24" value="" style="endArrow=none;html=1;entryX=0.25;entryY=0;entryDx=0;entryDy=0;exitX=0.25;exitY=1;exitDx=0;exitDy=0;strokeColor=#FFFFFF;" parent="1" source="kSItF3k7zf2F2lelT3IY-21" target="kSItF3k7zf2F2lelT3IY-21" edge="1"><mxGeometry width="50" height="50" relative="1" as="geometry"><mxPoint x="694.0000000000005" y="774" as="sourcePoint"/><mxPoint x="694.0000000000005" y="713" as="targetPoint"/></mxGeometry></mxCell><mxCell id="kSItF3k7zf2F2lelT3IY-25" value="&lt;span style=&quot;font-size: 18px ; background-color: rgb(0 , 0 , 0)&quot;&gt;&lt;font color=&quot;#ffffff&quot;&gt;E&amp;nbsp; &amp;nbsp; &amp;nbsp; &amp;nbsp;F&amp;nbsp; &amp;nbsp; &amp;nbsp; &amp;nbsp;G&amp;nbsp; &amp;nbsp; &amp;nbsp; H&lt;/font&gt;&lt;/span&gt;" style="rounded=0;whiteSpace=wrap;html=1;strokeColor=#FFFFFF;fillColor=none;" parent="1" vertex="1"><mxGeometry x="397" y="568" width="180" height="44" as="geometry"/></mxCell><mxCell id="kSItF3k7zf2F2lelT3IY-26" value="" style="endArrow=none;html=1;entryX=0.5;entryY=0;entryDx=0;entryDy=0;exitX=0.5;exitY=1;exitDx=0;exitDy=0;strokeColor=#FFFFFF;" parent="1" source="kSItF3k7zf2F2lelT3IY-25" target="kSItF3k7zf2F2lelT3IY-25" edge="1"><mxGeometry width="50" height="50" relative="1" as="geometry"><mxPoint x="366" y="768" as="sourcePoint"/><mxPoint x="416" y="718" as="targetPoint"/></mxGeometry></mxCell><mxCell id="kSItF3k7zf2F2lelT3IY-27" value="" style="endArrow=none;html=1;entryX=0.75;entryY=0;entryDx=0;entryDy=0;exitX=0.75;exitY=1;exitDx=0;exitDy=0;strokeColor=#FFFFFF;" parent="1" source="kSItF3k7zf2F2lelT3IY-25" target="kSItF3k7zf2F2lelT3IY-25" edge="1"><mxGeometry width="50" height="50" relative="1" as="geometry"><mxPoint x="583" y="784" as="sourcePoint"/><mxPoint x="583" y="723" as="targetPoint"/></mxGeometry></mxCell><mxCell id="kSItF3k7zf2F2lelT3IY-28" value="" style="endArrow=none;html=1;entryX=0.25;entryY=0;entryDx=0;entryDy=0;exitX=0.25;exitY=1;exitDx=0;exitDy=0;strokeColor=#FFFFFF;" parent="1" source="kSItF3k7zf2F2lelT3IY-25" target="kSItF3k7zf2F2lelT3IY-25" edge="1"><mxGeometry width="50" height="50" relative="1" as="geometry"><mxPoint x="704.0000000000005" y="784" as="sourcePoint"/><mxPoint x="704.0000000000005" y="723" as="targetPoint"/></mxGeometry></mxCell><mxCell id="kSItF3k7zf2F2lelT3IY-35" value="&lt;font style=&quot;font-size: 18px ; background-color: rgb(0 , 0 , 0)&quot; color=&quot;#ffffff&quot;&gt;I&amp;nbsp; &amp;nbsp; &amp;nbsp; &amp;nbsp; J&lt;/font&gt;" style="rounded=0;whiteSpace=wrap;html=1;strokeColor=#FFFFFF;fillColor=#000000;" parent="1" vertex="1"><mxGeometry x="577" y="568" width="90" height="44" as="geometry"/></mxCell><mxCell id="kSItF3k7zf2F2lelT3IY-36" value="" style="endArrow=none;html=1;entryX=0.5;entryY=0;entryDx=0;entryDy=0;exitX=0.5;exitY=1;exitDx=0;exitDy=0;strokeColor=#FFFFFF;" parent="1" source="kSItF3k7zf2F2lelT3IY-35" target="kSItF3k7zf2F2lelT3IY-35" edge="1"><mxGeometry width="50" height="50" relative="1" as="geometry"><mxPoint x="561" y="818" as="sourcePoint"/><mxPoint x="611" y="768" as="targetPoint"/></mxGeometry></mxCell><mxCell id="kSItF3k7zf2F2lelT3IY-230" value="&lt;span style=&quot;font-size: 18px ; background-color: rgb(0 , 0 , 0)&quot;&gt;&lt;font color=&quot;#ffffff&quot;&gt;1&lt;/font&gt;&lt;/span&gt;" style="rounded=0;whiteSpace=wrap;html=1;strokeColor=#FFFFFF;fillColor=#000000;" parent="1" vertex="1"><mxGeometry x="182" y="612" width="35" height="44" as="geometry"/></mxCell><mxCell id="kSItF3k7zf2F2lelT3IY-231" value="&lt;span style=&quot;font-size: 18px ; background-color: rgb(0 , 0 , 0)&quot;&gt;&lt;font color=&quot;#ffffff&quot;&gt;2&lt;/font&gt;&lt;/span&gt;" style="rounded=0;whiteSpace=wrap;html=1;strokeColor=#FFFFFF;fillColor=#000000;" parent="1" vertex="1"><mxGeometry x="182" y="656" width="35" height="44" as="geometry"/></mxCell><mxCell id="kSItF3k7zf2F2lelT3IY-232" value="&lt;span style=&quot;font-size: 18px ; background-color: rgb(0 , 0 , 0)&quot;&gt;&lt;font color=&quot;#ffffff&quot;&gt;3&lt;/font&gt;&lt;/span&gt;" style="rounded=0;whiteSpace=wrap;html=1;strokeColor=#FFFFFF;fillColor=#000000;" parent="1" vertex="1"><mxGeometry x="182" y="700" width="35" height="44" as="geometry"/></mxCell><mxCell id="kSItF3k7zf2F2lelT3IY-233" value="&lt;span style=&quot;font-size: 18px ; background-color: rgb(0 , 0 , 0)&quot;&gt;&lt;font color=&quot;#ffffff&quot;&gt;4&lt;/font&gt;&lt;/span&gt;" style="rounded=0;whiteSpace=wrap;html=1;strokeColor=#FFFFFF;fillColor=#000000;" parent="1" vertex="1"><mxGeometry x="182" y="744" width="35" height="44" as="geometry"/></mxCell><mxCell id="kSItF3k7zf2F2lelT3IY-234" value="&lt;span style=&quot;font-size: 18px ; background-color: rgb(0 , 0 , 0)&quot;&gt;&lt;font color=&quot;#ffffff&quot;&gt;5&lt;/font&gt;&lt;/span&gt;" style="rounded=0;whiteSpace=wrap;html=1;strokeColor=#FFFFFF;fillColor=#000000;" parent="1" vertex="1"><mxGeometry x="182" y="788" width="35" height="44" as="geometry"/></mxCell><mxCell id="kSItF3k7zf2F2lelT3IY-235" value="&lt;span style=&quot;font-size: 18px ; background-color: rgb(0 , 0 , 0)&quot;&gt;&lt;font color=&quot;#ffffff&quot;&gt;6&lt;/font&gt;&lt;/span&gt;" style="rounded=0;whiteSpace=wrap;html=1;strokeColor=#FFFFFF;fillColor=#000000;" parent="1" vertex="1"><mxGeometry x="182" y="832" width="35" height="44" as="geometry"/></mxCell><mxCell id="kSItF3k7zf2F2lelT3IY-236" value="&lt;span style=&quot;font-size: 18px ; background-color: rgb(0 , 0 , 0)&quot;&gt;&lt;font color=&quot;#ffffff&quot;&gt;7&lt;/font&gt;&lt;/span&gt;" style="rounded=0;whiteSpace=wrap;html=1;strokeColor=#FFFFFF;fillColor=#000000;" parent="1" vertex="1"><mxGeometry x="182" y="876" width="35" height="44" as="geometry"/></mxCell><mxCell id="kSItF3k7zf2F2lelT3IY-237" value="&lt;span style=&quot;font-size: 18px ; background-color: rgb(0 , 0 , 0)&quot;&gt;&lt;font color=&quot;#ffffff&quot;&gt;8&lt;/font&gt;&lt;/span&gt;" style="rounded=0;whiteSpace=wrap;html=1;strokeColor=#FFFFFF;fillColor=#000000;" parent="1" vertex="1"><mxGeometry x="182" y="920" width="35" height="44" as="geometry"/></mxCell><mxCell id="kSItF3k7zf2F2lelT3IY-238" value="&lt;span style=&quot;font-size: 18px ; background-color: rgb(0 , 0 , 0)&quot;&gt;&lt;font color=&quot;#ffffff&quot;&gt;9&lt;/font&gt;&lt;/span&gt;" style="rounded=0;whiteSpace=wrap;html=1;strokeColor=#FFFFFF;fillColor=#000000;" parent="1" vertex="1"><mxGeometry x="182" y="964" width="35" height="44" as="geometry"/></mxCell><mxCell id="kSItF3k7zf2F2lelT3IY-239" value="&lt;span style=&quot;font-size: 18px ; background-color: rgb(0 , 0 , 0)&quot;&gt;&lt;font color=&quot;#ffffff&quot;&gt;10&lt;/font&gt;&lt;/span&gt;" style="rounded=0;whiteSpace=wrap;html=1;strokeColor=#FFFFFF;fillColor=#000000;" parent="1" vertex="1"><mxGeometry x="182" y="1008" width="35" height="44" as="geometry"/></mxCell><mxCell id="kSItF3k7zf2F2lelT3IY-240" value="" style="shape=table;html=1;whiteSpace=wrap;startSize=0;container=1;collapsible=0;childLayout=tableLayout;strokeColor=#FFFFFF;fontSize=19;labelBackgroundColor=none;fontColor=#3333FF;fillColor=none;" parent="1" vertex="1"><mxGeometry x="218" y="613" width="449" height="439" as="geometry"/></mxCell><mxCell id="kSItF3k7zf2F2lelT3IY-241" value="" style="shape=partialRectangle;html=1;whiteSpace=wrap;collapsible=0;dropTarget=0;pointerEvents=0;fillColor=none;top=0;left=0;bottom=0;right=0;points=[[0,0.5],[1,0.5]];portConstraint=eastwest;fontColor=#FFFFFF;labelBackgroundColor=#000000;" parent="kSItF3k7zf2F2lelT3IY-240" vertex="1"><mxGeometry width="449" height="44" as="geometry"/></mxCell><mxCell id="kSItF3k7zf2F2lelT3IY-242" value="&lt;span style=&quot;color: rgb(255 , 255 , 255)&quot;&gt;~&lt;/span&gt;" style="shape=partialRectangle;html=1;whiteSpace=wrap;connectable=0;overflow=hidden;fillColor=none;top=0;left=0;bottom=0;right=0;fontSize=16;labelBackgroundColor=none;" parent="kSItF3k7zf2F2lelT3IY-241" vertex="1"><mxGeometry width="45" height="44" as="geometry"/></mxCell><mxCell id="kSItF3k7zf2F2lelT3IY-243" value="&lt;font color=&quot;#ffffff&quot;&gt;~&lt;/font&gt;" style="shape=partialRectangle;html=1;whiteSpace=wrap;connectable=0;overflow=hidden;fillColor=none;top=0;left=0;bottom=0;right=0;fontSize=16;labelBackgroundColor=none;" parent="kSItF3k7zf2F2lelT3IY-241" vertex="1"><mxGeometry x="45" width="45" height="44" as="geometry"/></mxCell><mxCell id="kSItF3k7zf2F2lelT3IY-244" value="&lt;font color=&quot;#ffffff&quot; style=&quot;font-size: 16px&quot;&gt;~&lt;/font&gt;" style="shape=partialRectangle;html=1;whiteSpace=wrap;connectable=0;overflow=hidden;fillColor=none;top=0;left=0;bottom=0;right=0;fontSize=16;labelBackgroundColor=none;" parent="kSItF3k7zf2F2lelT3IY-241" vertex="1"><mxGeometry x="90" width="45" height="44" as="geometry"/></mxCell><mxCell id="kSItF3k7zf2F2lelT3IY-245" value="&lt;span style=&quot;color: rgb(255 , 255 , 255)&quot;&gt;~&lt;/span&gt;" style="shape=partialRectangle;html=1;whiteSpace=wrap;connectable=0;overflow=hidden;fillColor=none;top=0;left=0;bottom=0;right=0;fontSize=16;labelBackgroundColor=none;" parent="kSItF3k7zf2F2lelT3IY-241" vertex="1"><mxGeometry x="135" width="45" height="44" as="geometry"/></mxCell><mxCell id="kSItF3k7zf2F2lelT3IY-246" value="&lt;span style=&quot;color: rgb(255 , 255 , 255)&quot;&gt;~&lt;/span&gt;" style="shape=partialRectangle;html=1;whiteSpace=wrap;connectable=0;overflow=hidden;fillColor=none;top=0;left=0;bottom=0;right=0;fontSize=16;labelBackgroundColor=none;" parent="kSItF3k7zf2F2lelT3IY-241" vertex="1"><mxGeometry x="180" width="45" height="44" as="geometry"/></mxCell><mxCell id="kSItF3k7zf2F2lelT3IY-247" value="&lt;span style=&quot;color: rgb(255 , 255 , 255)&quot;&gt;~&lt;/span&gt;" style="shape=partialRectangle;html=1;whiteSpace=wrap;connectable=0;overflow=hidden;fillColor=none;top=0;left=0;bottom=0;right=0;fontSize=16;" parent="kSItF3k7zf2F2lelT3IY-241" vertex="1"><mxGeometry x="225" width="44" height="44" as="geometry"/></mxCell><mxCell id="kSItF3k7zf2F2lelT3IY-248" value="&lt;span style=&quot;color: rgb(255 , 255 , 255)&quot;&gt;~&lt;/span&gt;" style="shape=partialRectangle;html=1;whiteSpace=wrap;connectable=0;overflow=hidden;fillColor=none;top=0;left=0;bottom=0;right=0;fontSize=16;" parent="kSItF3k7zf2F2lelT3IY-241" vertex="1"><mxGeometry x="269" width="45" height="44" as="geometry"/></mxCell><mxCell id="kSItF3k7zf2F2lelT3IY-249" value="&lt;span style=&quot;color: rgb(255 , 255 , 255)&quot;&gt;~&lt;/span&gt;" style="shape=partialRectangle;html=1;whiteSpace=wrap;connectable=0;overflow=hidden;fillColor=none;top=0;left=0;bottom=0;right=0;fontSize=16;" parent="kSItF3k7zf2F2lelT3IY-241" vertex="1"><mxGeometry x="314" width="45" height="44" as="geometry"/></mxCell><mxCell id="kSItF3k7zf2F2lelT3IY-250" value="~" style="shape=partialRectangle;html=1;whiteSpace=wrap;connectable=0;overflow=hidden;fillColor=none;top=0;left=0;bottom=0;right=0;fontColor=#FFFFFF;fontSize=16;" parent="kSItF3k7zf2F2lelT3IY-241" vertex="1"><mxGeometry x="359" width="45" height="44" as="geometry"/></mxCell><mxCell id="kSItF3k7zf2F2lelT3IY-251" value="~" style="shape=partialRectangle;html=1;whiteSpace=wrap;connectable=0;overflow=hidden;fillColor=none;top=0;left=0;bottom=0;right=0;fontColor=#FFFFFF;fontSize=16;" parent="kSItF3k7zf2F2lelT3IY-241" vertex="1"><mxGeometry x="404" width="45" height="44" as="geometry"/></mxCell><mxCell id="kSItF3k7zf2F2lelT3IY-252" value="" style="shape=partialRectangle;html=1;whiteSpace=wrap;collapsible=0;dropTarget=0;pointerEvents=0;fillColor=none;top=0;left=0;bottom=0;right=0;points=[[0,0.5],[1,0.5]];portConstraint=eastwest;" parent="kSItF3k7zf2F2lelT3IY-240" vertex="1"><mxGeometry y="44" width="449" height="44" as="geometry"/></mxCell><mxCell id="kSItF3k7zf2F2lelT3IY-253" value="&lt;span style=&quot;color: rgb(255 , 255 , 255)&quot;&gt;~&lt;/span&gt;" style="shape=partialRectangle;html=1;whiteSpace=wrap;connectable=0;overflow=hidden;fillColor=none;top=0;left=0;bottom=0;right=0;fontSize=16;labelBackgroundColor=none;" parent="kSItF3k7zf2F2lelT3IY-252" vertex="1"><mxGeometry width="45" height="44" as="geometry"/></mxCell><mxCell id="kSItF3k7zf2F2lelT3IY-254" value="~" style="shape=partialRectangle;html=1;whiteSpace=wrap;connectable=0;overflow=hidden;fillColor=none;top=0;left=0;bottom=0;right=0;fontColor=#FFFFFF;fontSize=16;labelBackgroundColor=none;" parent="kSItF3k7zf2F2lelT3IY-252" vertex="1"><mxGeometry x="45" width="45" height="44" as="geometry"/></mxCell><mxCell id="kSItF3k7zf2F2lelT3IY-255" value="~" style="shape=partialRectangle;html=1;whiteSpace=wrap;connectable=0;overflow=hidden;fillColor=none;top=0;left=0;bottom=0;right=0;fontColor=#FFFFFF;fontSize=16;labelBackgroundColor=none;" parent="kSItF3k7zf2F2lelT3IY-252" vertex="1"><mxGeometry x="90" width="45" height="44" as="geometry"/></mxCell><mxCell id="kSItF3k7zf2F2lelT3IY-256" value="~" style="shape=partialRectangle;html=1;whiteSpace=wrap;connectable=0;overflow=hidden;fillColor=none;top=0;left=0;bottom=0;right=0;fontColor=#FFFFFF;fontSize=16;labelBackgroundColor=none;" parent="kSItF3k7zf2F2lelT3IY-252" vertex="1"><mxGeometry x="135" width="45" height="44" as="geometry"/></mxCell><mxCell id="kSItF3k7zf2F2lelT3IY-257" value="~" style="shape=partialRectangle;html=1;whiteSpace=wrap;connectable=0;overflow=hidden;fillColor=none;top=0;left=0;bottom=0;right=0;fontColor=#FFFFFF;fontSize=16;labelBackgroundColor=none;" parent="kSItF3k7zf2F2lelT3IY-252" vertex="1"><mxGeometry x="180" width="45" height="44" as="geometry"/></mxCell><mxCell id="kSItF3k7zf2F2lelT3IY-258" value="~" style="shape=partialRectangle;html=1;whiteSpace=wrap;connectable=0;overflow=hidden;fillColor=none;top=0;left=0;bottom=0;right=0;fontColor=#FFFFFF;fontSize=16;" parent="kSItF3k7zf2F2lelT3IY-252" vertex="1"><mxGeometry x="225" width="44" height="44" as="geometry"/></mxCell><mxCell id="kSItF3k7zf2F2lelT3IY-259" value="~" style="shape=partialRectangle;html=1;whiteSpace=wrap;connectable=0;overflow=hidden;fillColor=none;top=0;left=0;bottom=0;right=0;fontColor=#FFFFFF;fontSize=16;" parent="kSItF3k7zf2F2lelT3IY-252" vertex="1"><mxGeometry x="269" width="45" height="44" as="geometry"/></mxCell><mxCell id="kSItF3k7zf2F2lelT3IY-260" value="~" style="shape=partialRectangle;html=1;whiteSpace=wrap;connectable=0;overflow=hidden;fillColor=none;top=0;left=0;bottom=0;right=0;fontColor=#FFFFFF;fontSize=16;" parent="kSItF3k7zf2F2lelT3IY-252" vertex="1"><mxGeometry x="314" width="45" height="44" as="geometry"/></mxCell><mxCell id="kSItF3k7zf2F2lelT3IY-261" value="~" style="shape=partialRectangle;html=1;whiteSpace=wrap;connectable=0;overflow=hidden;fillColor=none;top=0;left=0;bottom=0;right=0;fontColor=#FFFFFF;fontSize=16;" parent="kSItF3k7zf2F2lelT3IY-252" vertex="1"><mxGeometry x="359" width="45" height="44" as="geometry"/></mxCell><mxCell id="kSItF3k7zf2F2lelT3IY-262" value="~" style="shape=partialRectangle;html=1;whiteSpace=wrap;connectable=0;overflow=hidden;fillColor=none;top=0;left=0;bottom=0;right=0;fontColor=#FFFFFF;fontSize=16;" parent="kSItF3k7zf2F2lelT3IY-252" vertex="1"><mxGeometry x="404" width="45" height="44" as="geometry"/></mxCell><mxCell id="kSItF3k7zf2F2lelT3IY-263" value="" style="shape=partialRectangle;html=1;whiteSpace=wrap;collapsible=0;dropTarget=0;pointerEvents=0;fillColor=none;top=0;left=0;bottom=0;right=0;points=[[0,0.5],[1,0.5]];portConstraint=eastwest;" parent="kSItF3k7zf2F2lelT3IY-240" vertex="1"><mxGeometry y="88" width="449" height="44" as="geometry"/></mxCell><mxCell id="kSItF3k7zf2F2lelT3IY-264" value="~" style="shape=partialRectangle;html=1;whiteSpace=wrap;connectable=0;overflow=hidden;fillColor=none;top=0;left=0;bottom=0;right=0;fontColor=#FFFFFF;fontSize=16;labelBackgroundColor=none;" parent="kSItF3k7zf2F2lelT3IY-263" vertex="1"><mxGeometry width="45" height="44" as="geometry"/></mxCell><mxCell id="kSItF3k7zf2F2lelT3IY-265" value="~" style="shape=partialRectangle;html=1;whiteSpace=wrap;connectable=0;overflow=hidden;fillColor=none;top=0;left=0;bottom=0;right=0;fontColor=#FFFFFF;fontSize=16;labelBackgroundColor=none;" parent="kSItF3k7zf2F2lelT3IY-263" vertex="1"><mxGeometry x="45" width="45" height="44" as="geometry"/></mxCell><mxCell id="kSItF3k7zf2F2lelT3IY-266" value="~" style="shape=partialRectangle;html=1;whiteSpace=wrap;connectable=0;overflow=hidden;fillColor=none;top=0;left=0;bottom=0;right=0;fontColor=#FFFFFF;fontSize=16;labelBackgroundColor=none;" parent="kSItF3k7zf2F2lelT3IY-263" vertex="1"><mxGeometry x="90" width="45" height="44" as="geometry"/></mxCell><mxCell id="kSItF3k7zf2F2lelT3IY-267" value="~" style="shape=partialRectangle;html=1;whiteSpace=wrap;connectable=0;overflow=hidden;fillColor=none;top=0;left=0;bottom=0;right=0;fontColor=#FFFFFF;fontSize=16;labelBackgroundColor=none;" parent="kSItF3k7zf2F2lelT3IY-263" vertex="1"><mxGeometry x="135" width="45" height="44" as="geometry"/></mxCell><mxCell id="kSItF3k7zf2F2lelT3IY-268" value="#" style="shape=partialRectangle;html=1;whiteSpace=wrap;connectable=0;overflow=hidden;fillColor=#1ba1e2;top=0;left=0;bottom=0;right=0;fontColor=#ffffff;fontSize=16;labelBackgroundColor=none;strokeColor=#006EAF;" parent="kSItF3k7zf2F2lelT3IY-263" vertex="1"><mxGeometry x="180" width="45" height="44" as="geometry"/></mxCell><mxCell id="kSItF3k7zf2F2lelT3IY-269" value="~" style="shape=partialRectangle;html=1;whiteSpace=wrap;connectable=0;overflow=hidden;fillColor=none;top=0;left=0;bottom=0;right=0;fontColor=#FFFFFF;fontSize=16;" parent="kSItF3k7zf2F2lelT3IY-263" vertex="1"><mxGeometry x="225" width="44" height="44" as="geometry"/></mxCell><mxCell id="kSItF3k7zf2F2lelT3IY-270" value="~" style="shape=partialRectangle;html=1;whiteSpace=wrap;connectable=0;overflow=hidden;fillColor=none;top=0;left=0;bottom=0;right=0;fontColor=#FFFFFF;fontSize=16;" parent="kSItF3k7zf2F2lelT3IY-263" vertex="1"><mxGeometry x="269" width="45" height="44" as="geometry"/></mxCell><mxCell id="kSItF3k7zf2F2lelT3IY-271" value="~" style="shape=partialRectangle;html=1;whiteSpace=wrap;connectable=0;overflow=hidden;fillColor=none;top=0;left=0;bottom=0;right=0;fontColor=#FFFFFF;fontSize=16;" parent="kSItF3k7zf2F2lelT3IY-263" vertex="1"><mxGeometry x="314" width="45" height="44" as="geometry"/></mxCell><mxCell id="kSItF3k7zf2F2lelT3IY-272" value="~" style="shape=partialRectangle;html=1;whiteSpace=wrap;connectable=0;overflow=hidden;fillColor=none;top=0;left=0;bottom=0;right=0;fontColor=#FFFFFF;fontSize=16;" parent="kSItF3k7zf2F2lelT3IY-263" vertex="1"><mxGeometry x="359" width="45" height="44" as="geometry"/></mxCell><mxCell id="kSItF3k7zf2F2lelT3IY-273" value="~" style="shape=partialRectangle;html=1;whiteSpace=wrap;connectable=0;overflow=hidden;fillColor=none;top=0;left=0;bottom=0;right=0;fontColor=#FFFFFF;fontSize=16;" parent="kSItF3k7zf2F2lelT3IY-263" vertex="1"><mxGeometry x="404" width="45" height="44" as="geometry"/></mxCell><mxCell id="kSItF3k7zf2F2lelT3IY-274" value="" style="shape=partialRectangle;html=1;whiteSpace=wrap;collapsible=0;dropTarget=0;pointerEvents=0;fillColor=none;top=0;left=0;bottom=0;right=0;points=[[0,0.5],[1,0.5]];portConstraint=eastwest;" parent="kSItF3k7zf2F2lelT3IY-240" vertex="1"><mxGeometry y="132" width="449" height="44" as="geometry"/></mxCell><mxCell id="kSItF3k7zf2F2lelT3IY-275" value="~" style="shape=partialRectangle;html=1;whiteSpace=wrap;connectable=0;overflow=hidden;fillColor=none;top=0;left=0;bottom=0;right=0;fontColor=#FFFFFF;fontSize=16;labelBackgroundColor=none;" parent="kSItF3k7zf2F2lelT3IY-274" vertex="1"><mxGeometry width="45" height="44" as="geometry"/></mxCell><mxCell id="kSItF3k7zf2F2lelT3IY-276" value="~" style="shape=partialRectangle;html=1;whiteSpace=wrap;connectable=0;overflow=hidden;fillColor=none;top=0;left=0;bottom=0;right=0;fontColor=#FFFFFF;fontSize=16;labelBackgroundColor=none;" parent="kSItF3k7zf2F2lelT3IY-274" vertex="1"><mxGeometry x="45" width="45" height="44" as="geometry"/></mxCell><mxCell id="kSItF3k7zf2F2lelT3IY-277" value="~" style="shape=partialRectangle;html=1;whiteSpace=wrap;connectable=0;overflow=hidden;fillColor=none;top=0;left=0;bottom=0;right=0;fontColor=#FFFFFF;fontSize=16;labelBackgroundColor=none;" parent="kSItF3k7zf2F2lelT3IY-274" vertex="1"><mxGeometry x="90" width="45" height="44" as="geometry"/></mxCell><mxCell id="kSItF3k7zf2F2lelT3IY-278" value="~" style="shape=partialRectangle;html=1;whiteSpace=wrap;connectable=0;overflow=hidden;fillColor=none;top=0;left=0;bottom=0;right=0;fontColor=#FFFFFF;fontSize=16;labelBackgroundColor=none;" parent="kSItF3k7zf2F2lelT3IY-274" vertex="1"><mxGeometry x="135" width="45" height="44" as="geometry"/></mxCell><mxCell id="kSItF3k7zf2F2lelT3IY-279" value="~" style="shape=partialRectangle;html=1;whiteSpace=wrap;connectable=0;overflow=hidden;fillColor=none;top=0;left=0;bottom=0;right=0;fontColor=#FFFFFF;fontSize=16;labelBackgroundColor=none;" parent="kSItF3k7zf2F2lelT3IY-274" vertex="1"><mxGeometry x="180" width="45" height="44" as="geometry"/></mxCell><mxCell id="kSItF3k7zf2F2lelT3IY-280" value="~" style="shape=partialRectangle;html=1;whiteSpace=wrap;connectable=0;overflow=hidden;fillColor=none;top=0;left=0;bottom=0;right=0;fontColor=#FFFFFF;fontSize=16;" parent="kSItF3k7zf2F2lelT3IY-274" vertex="1"><mxGeometry x="225" width="44" height="44" as="geometry"/></mxCell><mxCell id="kSItF3k7zf2F2lelT3IY-281" value="~" style="shape=partialRectangle;html=1;whiteSpace=wrap;connectable=0;overflow=hidden;fillColor=none;top=0;left=0;bottom=0;right=0;fontColor=#FFFFFF;fontSize=16;" parent="kSItF3k7zf2F2lelT3IY-274" vertex="1"><mxGeometry x="269" width="45" height="44" as="geometry"/></mxCell><mxCell id="kSItF3k7zf2F2lelT3IY-282" value="~" style="shape=partialRectangle;html=1;whiteSpace=wrap;connectable=0;overflow=hidden;fillColor=none;top=0;left=0;bottom=0;right=0;fontColor=#FFFFFF;fontSize=16;" parent="kSItF3k7zf2F2lelT3IY-274" vertex="1"><mxGeometry x="314" width="45" height="44" as="geometry"/></mxCell><mxCell id="kSItF3k7zf2F2lelT3IY-283" value="~" style="shape=partialRectangle;html=1;whiteSpace=wrap;connectable=0;overflow=hidden;fillColor=none;top=0;left=0;bottom=0;right=0;fontColor=#FFFFFF;fontSize=16;" parent="kSItF3k7zf2F2lelT3IY-274" vertex="1"><mxGeometry x="359" width="45" height="44" as="geometry"/></mxCell><mxCell id="kSItF3k7zf2F2lelT3IY-284" value="~" style="shape=partialRectangle;html=1;whiteSpace=wrap;connectable=0;overflow=hidden;fillColor=none;top=0;left=0;bottom=0;right=0;fontColor=#FFFFFF;fontSize=16;" parent="kSItF3k7zf2F2lelT3IY-274" vertex="1"><mxGeometry x="404" width="45" height="44" as="geometry"/></mxCell><mxCell id="kSItF3k7zf2F2lelT3IY-285" value="" style="shape=partialRectangle;html=1;whiteSpace=wrap;collapsible=0;dropTarget=0;pointerEvents=0;fillColor=none;top=0;left=0;bottom=0;right=0;points=[[0,0.5],[1,0.5]];portConstraint=eastwest;" parent="kSItF3k7zf2F2lelT3IY-240" vertex="1"><mxGeometry y="176" width="449" height="44" as="geometry"/></mxCell><mxCell id="kSItF3k7zf2F2lelT3IY-286" value="~" style="shape=partialRectangle;html=1;whiteSpace=wrap;connectable=0;overflow=hidden;fillColor=none;top=0;left=0;bottom=0;right=0;fontColor=#FFFFFF;fontSize=16;labelBackgroundColor=none;" parent="kSItF3k7zf2F2lelT3IY-285" vertex="1"><mxGeometry width="45" height="44" as="geometry"/></mxCell><mxCell id="kSItF3k7zf2F2lelT3IY-287" value="~" style="shape=partialRectangle;html=1;whiteSpace=wrap;connectable=0;overflow=hidden;fillColor=none;top=0;left=0;bottom=0;right=0;fontColor=#FFFFFF;fontSize=16;labelBackgroundColor=none;" parent="kSItF3k7zf2F2lelT3IY-285" vertex="1"><mxGeometry x="45" width="45" height="44" as="geometry"/></mxCell><mxCell id="kSItF3k7zf2F2lelT3IY-288" value="!" style="shape=partialRectangle;html=1;whiteSpace=wrap;connectable=0;overflow=hidden;fillColor=#a20025;top=0;left=0;bottom=0;right=0;fontColor=#ffffff;fontSize=16;labelBackgroundColor=none;strokeColor=#6F0000;" parent="kSItF3k7zf2F2lelT3IY-285" vertex="1"><mxGeometry x="90" width="45" height="44" as="geometry"/></mxCell><mxCell id="kSItF3k7zf2F2lelT3IY-289" value="~" style="shape=partialRectangle;html=1;whiteSpace=wrap;connectable=0;overflow=hidden;fillColor=none;top=0;left=0;bottom=0;right=0;fontColor=#FFFFFF;fontSize=16;labelBackgroundColor=none;" parent="kSItF3k7zf2F2lelT3IY-285" vertex="1"><mxGeometry x="135" width="45" height="44" as="geometry"/></mxCell><mxCell id="kSItF3k7zf2F2lelT3IY-290" value="~" style="shape=partialRectangle;html=1;whiteSpace=wrap;connectable=0;overflow=hidden;fillColor=none;top=0;left=0;bottom=0;right=0;fontColor=#FFFFFF;fontSize=16;labelBackgroundColor=none;" parent="kSItF3k7zf2F2lelT3IY-285" vertex="1"><mxGeometry x="180" width="45" height="44" as="geometry"/></mxCell><mxCell id="kSItF3k7zf2F2lelT3IY-291" value="~" style="shape=partialRectangle;html=1;whiteSpace=wrap;connectable=0;overflow=hidden;fillColor=none;top=0;left=0;bottom=0;right=0;fontColor=#FFFFFF;fontSize=16;" parent="kSItF3k7zf2F2lelT3IY-285" vertex="1"><mxGeometry x="225" width="44" height="44" as="geometry"/></mxCell><mxCell id="kSItF3k7zf2F2lelT3IY-292" value="~" style="shape=partialRectangle;html=1;whiteSpace=wrap;connectable=0;overflow=hidden;fillColor=none;top=0;left=0;bottom=0;right=0;fontColor=#FFFFFF;fontSize=16;" parent="kSItF3k7zf2F2lelT3IY-285" vertex="1"><mxGeometry x="269" width="45" height="44" as="geometry"/></mxCell><mxCell id="kSItF3k7zf2F2lelT3IY-293" value="~" style="shape=partialRectangle;html=1;whiteSpace=wrap;connectable=0;overflow=hidden;fillColor=none;top=0;left=0;bottom=0;right=0;fontColor=#FFFFFF;fontSize=16;" parent="kSItF3k7zf2F2lelT3IY-285" vertex="1"><mxGeometry x="314" width="45" height="44" as="geometry"/></mxCell><mxCell id="kSItF3k7zf2F2lelT3IY-294" value="~" style="shape=partialRectangle;html=1;whiteSpace=wrap;connectable=0;overflow=hidden;fillColor=none;top=0;left=0;bottom=0;right=0;fontColor=#FFFFFF;fontSize=16;" parent="kSItF3k7zf2F2lelT3IY-285" vertex="1"><mxGeometry x="359" width="45" height="44" as="geometry"/></mxCell><mxCell id="kSItF3k7zf2F2lelT3IY-295" value="~" style="shape=partialRectangle;html=1;whiteSpace=wrap;connectable=0;overflow=hidden;fillColor=none;top=0;left=0;bottom=0;right=0;fontColor=#FFFFFF;fontSize=16;" parent="kSItF3k7zf2F2lelT3IY-285" vertex="1"><mxGeometry x="404" width="45" height="44" as="geometry"/></mxCell><mxCell id="kSItF3k7zf2F2lelT3IY-296" value="" style="shape=partialRectangle;html=1;whiteSpace=wrap;collapsible=0;dropTarget=0;pointerEvents=0;fillColor=none;top=0;left=0;bottom=0;right=0;points=[[0,0.5],[1,0.5]];portConstraint=eastwest;" parent="kSItF3k7zf2F2lelT3IY-240" vertex="1"><mxGeometry y="220" width="449" height="43" as="geometry"/></mxCell><mxCell id="kSItF3k7zf2F2lelT3IY-297" value="~" style="shape=partialRectangle;html=1;whiteSpace=wrap;connectable=0;overflow=hidden;fillColor=none;top=0;left=0;bottom=0;right=0;fontColor=#FFFFFF;fontSize=16;labelBackgroundColor=none;" parent="kSItF3k7zf2F2lelT3IY-296" vertex="1"><mxGeometry width="45" height="43" as="geometry"/></mxCell><mxCell id="kSItF3k7zf2F2lelT3IY-298" value="~" style="shape=partialRectangle;html=1;whiteSpace=wrap;connectable=0;overflow=hidden;fillColor=none;top=0;left=0;bottom=0;right=0;fontColor=#FFFFFF;fontSize=16;labelBackgroundColor=none;" parent="kSItF3k7zf2F2lelT3IY-296" vertex="1"><mxGeometry x="45" width="45" height="43" as="geometry"/></mxCell><mxCell id="kSItF3k7zf2F2lelT3IY-299" value="!" style="shape=partialRectangle;html=1;whiteSpace=wrap;connectable=0;overflow=hidden;fillColor=#a20025;top=0;left=0;bottom=0;right=0;fontColor=#ffffff;fontSize=16;labelBackgroundColor=none;strokeColor=#6F0000;" parent="kSItF3k7zf2F2lelT3IY-296" vertex="1"><mxGeometry x="90" width="45" height="43" as="geometry"/></mxCell><mxCell id="kSItF3k7zf2F2lelT3IY-300" value="~" style="shape=partialRectangle;html=1;whiteSpace=wrap;connectable=0;overflow=hidden;fillColor=none;top=0;left=0;bottom=0;right=0;fontColor=#FFFFFF;fontSize=16;labelBackgroundColor=none;" parent="kSItF3k7zf2F2lelT3IY-296" vertex="1"><mxGeometry x="135" width="45" height="43" as="geometry"/></mxCell><mxCell id="kSItF3k7zf2F2lelT3IY-301" value="~" style="shape=partialRectangle;html=1;whiteSpace=wrap;connectable=0;overflow=hidden;fillColor=none;top=0;left=0;bottom=0;right=0;fontColor=#FFFFFF;fontSize=16;labelBackgroundColor=none;" parent="kSItF3k7zf2F2lelT3IY-296" vertex="1"><mxGeometry x="180" width="45" height="43" as="geometry"/></mxCell><mxCell id="kSItF3k7zf2F2lelT3IY-302" value="~" style="shape=partialRectangle;html=1;whiteSpace=wrap;connectable=0;overflow=hidden;fillColor=none;top=0;left=0;bottom=0;right=0;fontColor=#FFFFFF;fontSize=16;" parent="kSItF3k7zf2F2lelT3IY-296" vertex="1"><mxGeometry x="225" width="44" height="43" as="geometry"/></mxCell><mxCell id="kSItF3k7zf2F2lelT3IY-303" value="~" style="shape=partialRectangle;html=1;whiteSpace=wrap;connectable=0;overflow=hidden;fillColor=none;top=0;left=0;bottom=0;right=0;fontColor=#FFFFFF;fontSize=16;" parent="kSItF3k7zf2F2lelT3IY-296" vertex="1"><mxGeometry x="269" width="45" height="43" as="geometry"/></mxCell><mxCell id="kSItF3k7zf2F2lelT3IY-304" value="~" style="shape=partialRectangle;html=1;whiteSpace=wrap;connectable=0;overflow=hidden;fillColor=none;top=0;left=0;bottom=0;right=0;fontColor=#FFFFFF;fontSize=16;" parent="kSItF3k7zf2F2lelT3IY-296" vertex="1"><mxGeometry x="314" width="45" height="43" as="geometry"/></mxCell><mxCell id="kSItF3k7zf2F2lelT3IY-305" value="~" style="shape=partialRectangle;html=1;whiteSpace=wrap;connectable=0;overflow=hidden;fillColor=none;top=0;left=0;bottom=0;right=0;fontColor=#FFFFFF;fontSize=16;" parent="kSItF3k7zf2F2lelT3IY-296" vertex="1"><mxGeometry x="359" width="45" height="43" as="geometry"/></mxCell><mxCell id="kSItF3k7zf2F2lelT3IY-306" value="~" style="shape=partialRectangle;html=1;whiteSpace=wrap;connectable=0;overflow=hidden;fillColor=none;top=0;left=0;bottom=0;right=0;fontColor=#FFFFFF;fontSize=16;" parent="kSItF3k7zf2F2lelT3IY-296" vertex="1"><mxGeometry x="404" width="45" height="43" as="geometry"/></mxCell><mxCell id="kSItF3k7zf2F2lelT3IY-307" value="" style="shape=partialRectangle;html=1;whiteSpace=wrap;collapsible=0;dropTarget=0;pointerEvents=0;fillColor=none;top=0;left=0;bottom=0;right=0;points=[[0,0.5],[1,0.5]];portConstraint=eastwest;" parent="kSItF3k7zf2F2lelT3IY-240" vertex="1"><mxGeometry y="263" width="449" height="44" as="geometry"/></mxCell><mxCell id="kSItF3k7zf2F2lelT3IY-308" value="~" style="shape=partialRectangle;html=1;whiteSpace=wrap;connectable=0;overflow=hidden;fillColor=none;top=0;left=0;bottom=0;right=0;fontColor=#FFFFFF;fontSize=16;labelBackgroundColor=none;" parent="kSItF3k7zf2F2lelT3IY-307" vertex="1"><mxGeometry width="45" height="44" as="geometry"/></mxCell><mxCell id="kSItF3k7zf2F2lelT3IY-309" value="~" style="shape=partialRectangle;html=1;whiteSpace=wrap;connectable=0;overflow=hidden;fillColor=none;top=0;left=0;bottom=0;right=0;fontColor=#FFFFFF;fontSize=16;labelBackgroundColor=none;" parent="kSItF3k7zf2F2lelT3IY-307" vertex="1"><mxGeometry x="45" width="45" height="44" as="geometry"/></mxCell><mxCell id="kSItF3k7zf2F2lelT3IY-310" value="~" style="shape=partialRectangle;html=1;whiteSpace=wrap;connectable=0;overflow=hidden;fillColor=none;top=0;left=0;bottom=0;right=0;fontColor=#FFFFFF;fontSize=16;labelBackgroundColor=none;" parent="kSItF3k7zf2F2lelT3IY-307" vertex="1"><mxGeometry x="90" width="45" height="44" as="geometry"/></mxCell><mxCell id="kSItF3k7zf2F2lelT3IY-311" value="~" style="shape=partialRectangle;html=1;whiteSpace=wrap;connectable=0;overflow=hidden;fillColor=none;top=0;left=0;bottom=0;right=0;fontColor=#FFFFFF;fontSize=16;labelBackgroundColor=none;" parent="kSItF3k7zf2F2lelT3IY-307" vertex="1"><mxGeometry x="135" width="45" height="44" as="geometry"/></mxCell><mxCell id="kSItF3k7zf2F2lelT3IY-312" value="~" style="shape=partialRectangle;html=1;whiteSpace=wrap;connectable=0;overflow=hidden;fillColor=none;top=0;left=0;bottom=0;right=0;fontColor=#FFFFFF;fontSize=16;labelBackgroundColor=none;" parent="kSItF3k7zf2F2lelT3IY-307" vertex="1"><mxGeometry x="180" width="45" height="44" as="geometry"/></mxCell><mxCell id="kSItF3k7zf2F2lelT3IY-313" value="~" style="shape=partialRectangle;html=1;whiteSpace=wrap;connectable=0;overflow=hidden;fillColor=none;top=0;left=0;bottom=0;right=0;fontColor=#FFFFFF;fontSize=16;" parent="kSItF3k7zf2F2lelT3IY-307" vertex="1"><mxGeometry x="225" width="44" height="44" as="geometry"/></mxCell><mxCell id="kSItF3k7zf2F2lelT3IY-314" value="~" style="shape=partialRectangle;html=1;whiteSpace=wrap;connectable=0;overflow=hidden;fillColor=none;top=0;left=0;bottom=0;right=0;fontColor=#FFFFFF;fontSize=16;" parent="kSItF3k7zf2F2lelT3IY-307" vertex="1"><mxGeometry x="269" width="45" height="44" as="geometry"/></mxCell><mxCell id="kSItF3k7zf2F2lelT3IY-315" value="~" style="shape=partialRectangle;html=1;whiteSpace=wrap;connectable=0;overflow=hidden;fillColor=none;top=0;left=0;bottom=0;right=0;fontColor=#FFFFFF;fontSize=16;" parent="kSItF3k7zf2F2lelT3IY-307" vertex="1"><mxGeometry x="314" width="45" height="44" as="geometry"/></mxCell><mxCell id="kSItF3k7zf2F2lelT3IY-316" value="~" style="shape=partialRectangle;html=1;whiteSpace=wrap;connectable=0;overflow=hidden;fillColor=none;top=0;left=0;bottom=0;right=0;fontColor=#FFFFFF;fontSize=16;" parent="kSItF3k7zf2F2lelT3IY-307" vertex="1"><mxGeometry x="359" width="45" height="44" as="geometry"/></mxCell><mxCell id="kSItF3k7zf2F2lelT3IY-317" value="~" style="shape=partialRectangle;html=1;whiteSpace=wrap;connectable=0;overflow=hidden;fillColor=none;top=0;left=0;bottom=0;right=0;fontColor=#FFFFFF;fontSize=16;" parent="kSItF3k7zf2F2lelT3IY-307" vertex="1"><mxGeometry x="404" width="45" height="44" as="geometry"/></mxCell><mxCell id="kSItF3k7zf2F2lelT3IY-318" value="" style="shape=partialRectangle;html=1;whiteSpace=wrap;collapsible=0;dropTarget=0;pointerEvents=0;fillColor=none;top=0;left=0;bottom=0;right=0;points=[[0,0.5],[1,0.5]];portConstraint=eastwest;" parent="kSItF3k7zf2F2lelT3IY-240" vertex="1"><mxGeometry y="307" width="449" height="44" as="geometry"/></mxCell><mxCell id="kSItF3k7zf2F2lelT3IY-319" value="~" style="shape=partialRectangle;html=1;whiteSpace=wrap;connectable=0;overflow=hidden;fillColor=none;top=0;left=0;bottom=0;right=0;fontColor=#FFFFFF;fontSize=16;labelBackgroundColor=none;" parent="kSItF3k7zf2F2lelT3IY-318" vertex="1"><mxGeometry width="45" height="44" as="geometry"/></mxCell><mxCell id="kSItF3k7zf2F2lelT3IY-320" value="~" style="shape=partialRectangle;html=1;whiteSpace=wrap;connectable=0;overflow=hidden;fillColor=none;top=0;left=0;bottom=0;right=0;fontColor=#FFFFFF;fontSize=16;labelBackgroundColor=none;" parent="kSItF3k7zf2F2lelT3IY-318" vertex="1"><mxGeometry x="45" width="45" height="44" as="geometry"/></mxCell><mxCell id="kSItF3k7zf2F2lelT3IY-321" value="~" style="shape=partialRectangle;html=1;whiteSpace=wrap;connectable=0;overflow=hidden;fillColor=none;top=0;left=0;bottom=0;right=0;fontColor=#FFFFFF;fontSize=16;labelBackgroundColor=none;" parent="kSItF3k7zf2F2lelT3IY-318" vertex="1"><mxGeometry x="90" width="45" height="44" as="geometry"/></mxCell><mxCell id="kSItF3k7zf2F2lelT3IY-322" value="~" style="shape=partialRectangle;html=1;whiteSpace=wrap;connectable=0;overflow=hidden;fillColor=none;top=0;left=0;bottom=0;right=0;fontColor=#FFFFFF;fontSize=16;labelBackgroundColor=none;" parent="kSItF3k7zf2F2lelT3IY-318" vertex="1"><mxGeometry x="135" width="45" height="44" as="geometry"/></mxCell><mxCell id="kSItF3k7zf2F2lelT3IY-323" value="~" style="shape=partialRectangle;html=1;whiteSpace=wrap;connectable=0;overflow=hidden;fillColor=none;top=0;left=0;bottom=0;right=0;fontColor=#FFFFFF;fontSize=16;labelBackgroundColor=none;" parent="kSItF3k7zf2F2lelT3IY-318" vertex="1"><mxGeometry x="180" width="45" height="44" as="geometry"/></mxCell><mxCell id="kSItF3k7zf2F2lelT3IY-324" value="~" style="shape=partialRectangle;html=1;whiteSpace=wrap;connectable=0;overflow=hidden;fillColor=none;top=0;left=0;bottom=0;right=0;fontColor=#FFFFFF;fontSize=16;" parent="kSItF3k7zf2F2lelT3IY-318" vertex="1"><mxGeometry x="225" width="44" height="44" as="geometry"/></mxCell><mxCell id="kSItF3k7zf2F2lelT3IY-325" value="#" style="shape=partialRectangle;html=1;whiteSpace=wrap;connectable=0;overflow=hidden;fillColor=#1ba1e2;top=0;left=0;bottom=0;right=0;fontColor=#ffffff;fontSize=16;strokeColor=#006EAF;" parent="kSItF3k7zf2F2lelT3IY-318" vertex="1"><mxGeometry x="269" width="45" height="44" as="geometry"/></mxCell><mxCell id="kSItF3k7zf2F2lelT3IY-326" value="~" style="shape=partialRectangle;html=1;whiteSpace=wrap;connectable=0;overflow=hidden;fillColor=none;top=0;left=0;bottom=0;right=0;fontColor=#FFFFFF;fontSize=16;" parent="kSItF3k7zf2F2lelT3IY-318" vertex="1"><mxGeometry x="314" width="45" height="44" as="geometry"/></mxCell><mxCell id="kSItF3k7zf2F2lelT3IY-327" value="~" style="shape=partialRectangle;html=1;whiteSpace=wrap;connectable=0;overflow=hidden;fillColor=none;top=0;left=0;bottom=0;right=0;fontColor=#FFFFFF;fontSize=16;" parent="kSItF3k7zf2F2lelT3IY-318" vertex="1"><mxGeometry x="359" width="45" height="44" as="geometry"/></mxCell><mxCell id="kSItF3k7zf2F2lelT3IY-328" value="~" style="shape=partialRectangle;html=1;whiteSpace=wrap;connectable=0;overflow=hidden;fillColor=none;top=0;left=0;bottom=0;right=0;fontColor=#FFFFFF;fontSize=16;" parent="kSItF3k7zf2F2lelT3IY-318" vertex="1"><mxGeometry x="404" width="45" height="44" as="geometry"/></mxCell><mxCell id="kSItF3k7zf2F2lelT3IY-329" value="" style="shape=partialRectangle;html=1;whiteSpace=wrap;collapsible=0;dropTarget=0;pointerEvents=0;fillColor=none;top=0;left=0;bottom=0;right=0;points=[[0,0.5],[1,0.5]];portConstraint=eastwest;" parent="kSItF3k7zf2F2lelT3IY-240" vertex="1"><mxGeometry y="351" width="449" height="44" as="geometry"/></mxCell><mxCell id="kSItF3k7zf2F2lelT3IY-330" value="~" style="shape=partialRectangle;html=1;whiteSpace=wrap;connectable=0;overflow=hidden;fillColor=none;top=0;left=0;bottom=0;right=0;fontColor=#FFFFFF;fontSize=16;labelBackgroundColor=none;" parent="kSItF3k7zf2F2lelT3IY-329" vertex="1"><mxGeometry width="45" height="44" as="geometry"/></mxCell><mxCell id="kSItF3k7zf2F2lelT3IY-331" value="~" style="shape=partialRectangle;html=1;whiteSpace=wrap;connectable=0;overflow=hidden;fillColor=none;top=0;left=0;bottom=0;right=0;fontColor=#FFFFFF;fontSize=16;labelBackgroundColor=none;" parent="kSItF3k7zf2F2lelT3IY-329" vertex="1"><mxGeometry x="45" width="45" height="44" as="geometry"/></mxCell><mxCell id="kSItF3k7zf2F2lelT3IY-332" value="~" style="shape=partialRectangle;html=1;whiteSpace=wrap;connectable=0;overflow=hidden;fillColor=none;top=0;left=0;bottom=0;right=0;fontColor=#FFFFFF;fontSize=16;labelBackgroundColor=none;" parent="kSItF3k7zf2F2lelT3IY-329" vertex="1"><mxGeometry x="90" width="45" height="44" as="geometry"/></mxCell><mxCell id="kSItF3k7zf2F2lelT3IY-333" value="~" style="shape=partialRectangle;html=1;whiteSpace=wrap;connectable=0;overflow=hidden;fillColor=none;top=0;left=0;bottom=0;right=0;fontColor=#FFFFFF;fontSize=16;labelBackgroundColor=none;" parent="kSItF3k7zf2F2lelT3IY-329" vertex="1"><mxGeometry x="135" width="45" height="44" as="geometry"/></mxCell><mxCell id="kSItF3k7zf2F2lelT3IY-334" value="~" style="shape=partialRectangle;html=1;whiteSpace=wrap;connectable=0;overflow=hidden;fillColor=none;top=0;left=0;bottom=0;right=0;fontColor=#FFFFFF;fontSize=16;labelBackgroundColor=none;" parent="kSItF3k7zf2F2lelT3IY-329" vertex="1"><mxGeometry x="180" width="45" height="44" as="geometry"/></mxCell><mxCell id="kSItF3k7zf2F2lelT3IY-335" value="~" style="shape=partialRectangle;html=1;whiteSpace=wrap;connectable=0;overflow=hidden;fillColor=none;top=0;left=0;bottom=0;right=0;fontColor=#FFFFFF;fontSize=16;" parent="kSItF3k7zf2F2lelT3IY-329" vertex="1"><mxGeometry x="225" width="44" height="44" as="geometry"/></mxCell><mxCell id="kSItF3k7zf2F2lelT3IY-336" value="~" style="shape=partialRectangle;html=1;whiteSpace=wrap;connectable=0;overflow=hidden;fillColor=none;top=0;left=0;bottom=0;right=0;fontColor=#FFFFFF;fontSize=16;" parent="kSItF3k7zf2F2lelT3IY-329" vertex="1"><mxGeometry x="269" width="45" height="44" as="geometry"/></mxCell><mxCell id="kSItF3k7zf2F2lelT3IY-337" value="~" style="shape=partialRectangle;html=1;whiteSpace=wrap;connectable=0;overflow=hidden;fillColor=none;top=0;left=0;bottom=0;right=0;fontColor=#FFFFFF;fontSize=16;" parent="kSItF3k7zf2F2lelT3IY-329" vertex="1"><mxGeometry x="314" width="45" height="44" as="geometry"/></mxCell><mxCell id="kSItF3k7zf2F2lelT3IY-338" value="~" style="shape=partialRectangle;html=1;whiteSpace=wrap;connectable=0;overflow=hidden;fillColor=none;top=0;left=0;bottom=0;right=0;fontColor=#FFFFFF;fontSize=16;" parent="kSItF3k7zf2F2lelT3IY-329" vertex="1"><mxGeometry x="359" width="45" height="44" as="geometry"/></mxCell><mxCell id="kSItF3k7zf2F2lelT3IY-339" value="~" style="shape=partialRectangle;html=1;whiteSpace=wrap;connectable=0;overflow=hidden;fillColor=none;top=0;left=0;bottom=0;right=0;fontColor=#FFFFFF;fontSize=16;" parent="kSItF3k7zf2F2lelT3IY-329" vertex="1"><mxGeometry x="404" width="45" height="44" as="geometry"/></mxCell><mxCell id="kSItF3k7zf2F2lelT3IY-340" value="" style="shape=partialRectangle;html=1;whiteSpace=wrap;collapsible=0;dropTarget=0;pointerEvents=0;fillColor=none;top=0;left=0;bottom=0;right=0;points=[[0,0.5],[1,0.5]];portConstraint=eastwest;" parent="kSItF3k7zf2F2lelT3IY-240" vertex="1"><mxGeometry y="395" width="449" height="44" as="geometry"/></mxCell><mxCell id="kSItF3k7zf2F2lelT3IY-341" value="~" style="shape=partialRectangle;html=1;whiteSpace=wrap;connectable=0;overflow=hidden;fillColor=none;top=0;left=0;bottom=0;right=0;fontColor=#FFFFFF;fontSize=16;labelBackgroundColor=none;" parent="kSItF3k7zf2F2lelT3IY-340" vertex="1"><mxGeometry width="45" height="44" as="geometry"/></mxCell><mxCell id="kSItF3k7zf2F2lelT3IY-342" value="~" style="shape=partialRectangle;html=1;whiteSpace=wrap;connectable=0;overflow=hidden;fillColor=none;top=0;left=0;bottom=0;right=0;fontColor=#FFFFFF;fontSize=16;labelBackgroundColor=none;" parent="kSItF3k7zf2F2lelT3IY-340" vertex="1"><mxGeometry x="45" width="45" height="44" as="geometry"/></mxCell><mxCell id="kSItF3k7zf2F2lelT3IY-343" value="~" style="shape=partialRectangle;html=1;whiteSpace=wrap;connectable=0;overflow=hidden;fillColor=none;top=0;left=0;bottom=0;right=0;fontColor=#FFFFFF;fontSize=16;labelBackgroundColor=none;" parent="kSItF3k7zf2F2lelT3IY-340" vertex="1"><mxGeometry x="90" width="45" height="44" as="geometry"/></mxCell><mxCell id="kSItF3k7zf2F2lelT3IY-344" value="~" style="shape=partialRectangle;html=1;whiteSpace=wrap;connectable=0;overflow=hidden;fillColor=none;top=0;left=0;bottom=0;right=0;fontColor=#FFFFFF;fontSize=16;labelBackgroundColor=none;" parent="kSItF3k7zf2F2lelT3IY-340" vertex="1"><mxGeometry x="135" width="45" height="44" as="geometry"/></mxCell><mxCell id="kSItF3k7zf2F2lelT3IY-345" value="~" style="shape=partialRectangle;html=1;whiteSpace=wrap;connectable=0;overflow=hidden;fillColor=none;top=0;left=0;bottom=0;right=0;fontColor=#FFFFFF;fontSize=16;labelBackgroundColor=none;" parent="kSItF3k7zf2F2lelT3IY-340" vertex="1"><mxGeometry x="180" width="45" height="44" as="geometry"/></mxCell><mxCell id="kSItF3k7zf2F2lelT3IY-346" value="~" style="shape=partialRectangle;html=1;whiteSpace=wrap;connectable=0;overflow=hidden;fillColor=none;top=0;left=0;bottom=0;right=0;fontColor=#FFFFFF;fontSize=16;" parent="kSItF3k7zf2F2lelT3IY-340" vertex="1"><mxGeometry x="225" width="44" height="44" as="geometry"/></mxCell><mxCell id="kSItF3k7zf2F2lelT3IY-347" value="~" style="shape=partialRectangle;html=1;whiteSpace=wrap;connectable=0;overflow=hidden;fillColor=none;top=0;left=0;bottom=0;right=0;fontColor=#FFFFFF;fontSize=16;" parent="kSItF3k7zf2F2lelT3IY-340" vertex="1"><mxGeometry x="269" width="45" height="44" as="geometry"/></mxCell><mxCell id="kSItF3k7zf2F2lelT3IY-348" value="~" style="shape=partialRectangle;html=1;whiteSpace=wrap;connectable=0;overflow=hidden;fillColor=none;top=0;left=0;bottom=0;right=0;fontColor=#FFFFFF;fontSize=16;" parent="kSItF3k7zf2F2lelT3IY-340" vertex="1"><mxGeometry x="314" width="45" height="44" as="geometry"/></mxCell><mxCell id="kSItF3k7zf2F2lelT3IY-349" value="~" style="shape=partialRectangle;html=1;whiteSpace=wrap;connectable=0;overflow=hidden;fillColor=none;top=0;left=0;bottom=0;right=0;fontColor=#FFFFFF;fontSize=16;" parent="kSItF3k7zf2F2lelT3IY-340" vertex="1"><mxGeometry x="359" width="45" height="44" as="geometry"/></mxCell><mxCell id="kSItF3k7zf2F2lelT3IY-350" value="~" style="shape=partialRectangle;html=1;whiteSpace=wrap;connectable=0;overflow=hidden;fillColor=none;top=0;left=0;bottom=0;right=0;fontColor=#FFFFFF;fontSize=16;" parent="kSItF3k7zf2F2lelT3IY-340" vertex="1"><mxGeometry x="404" width="45" height="44" as="geometry"/></mxCell><mxCell id="4" value="&lt;b&gt;&lt;font color=&quot;#000000&quot;&gt;REGLES&lt;/font&gt;&lt;/b&gt;" style="rounded=0;whiteSpace=wrap;html=1;fillColor=#FFFFFF;" vertex="1" parent="1"><mxGeometry x="1" y="1158" width="825" height="60" as="geometry"/></mxCell><mxCell id="5" value="Text" style="text;html=1;align=center;verticalAlign=middle;resizable=0;points=[];autosize=1;fontColor=none;" vertex="1" parent="1"><mxGeometry x="339" y="1361" width="40" height="20" as="geometry"/></mxCell><mxCell id="6" value="&lt;div&gt;&lt;span style=&quot;background-color: rgb(0 , 0 , 0) ; color: rgb(255 , 255 , 255)&quot;&gt;&amp;nbsp; &amp;nbsp; &amp;nbsp; &amp;nbsp;RÈGLES&lt;/span&gt;&lt;br&gt;&lt;/div&gt;&lt;div&gt;&lt;font color=&quot;#ffffff&quot; style=&quot;background-color: rgb(0 , 0 , 0)&quot;&gt;&lt;br&gt;&lt;/font&gt;&lt;/div&gt;&lt;div&gt;&lt;font color=&quot;#ffffff&quot; style=&quot;background-color: rgb(0 , 0 , 0)&quot;&gt;&amp;nbsp; &amp;nbsp; &amp;nbsp; &amp;nbsp;Votre flotte a 5 bateaux qui sont les suivant:&lt;/font&gt;&lt;/div&gt;&lt;div&gt;&lt;font color=&quot;#ffffff&quot; style=&quot;background-color: rgb(0 , 0 , 0)&quot;&gt;&amp;nbsp; &amp;nbsp; &amp;nbsp; &amp;nbsp;-1 porte-avion(5 cases)&lt;/font&gt;&lt;/div&gt;&lt;div&gt;&lt;font color=&quot;#ffffff&quot; style=&quot;background-color: rgb(0 , 0 , 0)&quot;&gt;&amp;nbsp; &amp;nbsp; &amp;nbsp; &amp;nbsp;-1 croiseur(4 cases)&lt;/font&gt;&lt;/div&gt;&lt;div&gt;&lt;font color=&quot;#ffffff&quot; style=&quot;background-color: rgb(0 , 0 , 0)&quot;&gt;&amp;nbsp; &amp;nbsp; &amp;nbsp; &amp;nbsp;-1 contre-torpilleur(3 cases)&lt;/font&gt;&lt;/div&gt;&lt;div&gt;&lt;font color=&quot;#ffffff&quot; style=&quot;background-color: rgb(0 , 0 , 0)&quot;&gt;&amp;nbsp; &amp;nbsp; &amp;nbsp; &amp;nbsp;-1 sous-marin(3 cases)&lt;/font&gt;&lt;/div&gt;&lt;div&gt;&lt;font color=&quot;#ffffff&quot; style=&quot;background-color: rgb(0 , 0 , 0)&quot;&gt;&amp;nbsp; &amp;nbsp; &amp;nbsp; &amp;nbsp;-1 torpilleur (2 cases)&lt;/font&gt;&lt;/div&gt;&lt;div&gt;&lt;font color=&quot;#ffffff&quot; style=&quot;background-color: rgb(0 , 0 , 0)&quot;&gt;&amp;nbsp; &amp;nbsp; &amp;nbsp; &amp;nbsp;Les bateaux ne sont pas colles entre eux.&lt;/font&gt;&lt;/div&gt;&lt;div&gt;&lt;font color=&quot;#ffffff&quot; style=&quot;background-color: rgb(0 , 0 , 0)&quot;&gt;&amp;nbsp; &amp;nbsp; &amp;nbsp; &amp;nbsp;La grille est numerotée de 1 a 10 verticalement&lt;/font&gt;&lt;/div&gt;&lt;div&gt;&lt;font color=&quot;#ffffff&quot; style=&quot;background-color: rgb(0 , 0 , 0)&quot;&gt;&amp;nbsp; &amp;nbsp; &amp;nbsp; &amp;nbsp;et de A a J horizontalement. Vous allez &quot;tirer&quot;&lt;/font&gt;&lt;/div&gt;&lt;div&gt;&lt;font color=&quot;#ffffff&quot; style=&quot;background-color: rgb(0 , 0 , 0)&quot;&gt;&amp;nbsp; &amp;nbsp; &amp;nbsp; &amp;nbsp;sur une case de l'adversaire: exemple, B.3. le but est&lt;/font&gt;&lt;/div&gt;&lt;div&gt;&lt;font color=&quot;#ffffff&quot; style=&quot;background-color: rgb(0 , 0 , 0)&quot;&gt;&amp;nbsp; &amp;nbsp; &amp;nbsp; &amp;nbsp;donc de couler les bateaux adverses.&lt;/font&gt;&lt;/div&gt;&lt;div&gt;&lt;font color=&quot;#ffffff&quot; style=&quot;background-color: rgb(0 , 0 , 0)&quot;&gt;&amp;nbsp; &amp;nbsp; &amp;nbsp; &amp;nbsp;Au fur et a mesure des marqueurs serons affiche afin de se&lt;/font&gt;&lt;/div&gt;&lt;div&gt;&lt;font color=&quot;#ffffff&quot; style=&quot;background-color: rgb(0 , 0 , 0)&quot;&gt;&amp;nbsp; &amp;nbsp; &amp;nbsp; &amp;nbsp;souvenir de vos tirs passes.&lt;/font&gt;&lt;/div&gt;&lt;div&gt;&lt;font color=&quot;#ffffff&quot; style=&quot;background-color: rgb(0 , 0 , 0)&quot;&gt;&lt;br&gt;&lt;/font&gt;&lt;/div&gt;&lt;div&gt;&lt;font color=&quot;#ffffff&quot; style=&quot;background-color: rgb(0 , 0 , 0)&quot;&gt;&amp;nbsp; &amp;nbsp; &amp;nbsp; &amp;nbsp;Appuyez sur une touche pour continuer...&lt;/font&gt;&lt;/div&gt;" style="text;html=1;align=left;verticalAlign=middle;resizable=0;points=[];autosize=1;fontColor=none;" vertex="1" parent="1"><mxGeometry x="212" y="1275" width="348" height="235" as="geometry"/></mxCell><mxCell id="7" value="&lt;b&gt;&lt;font color=&quot;#000000&quot;&gt;REGLES&lt;/font&gt;&lt;/b&gt;" style="rounded=0;whiteSpace=wrap;html=1;fillColor=#FFFFFF;" vertex="1" parent="1"><mxGeometry x="2" y="1568" width="825" height="60" as="geometry"/></mxCell></root></mxGraphModel></diagram></mxfile>